<svg width="152" height="80" viewBox="0 0 152 80" fill="none" xmlns="http://www.w3.org/2000/svg">
<path d="M7 74L1 68L7 62" stroke="#DCE3EB" stroke-width="1.5" stroke-linecap="round" stroke-linejoin="round"/>
<path d="M20.696 62.784C21.3467 62.784 21.9173 62.9227 22.408 63.2C22.9093 63.4667 23.2933 63.8453 23.56 64.336C23.8373 64.8267 23.976 65.392 23.976 66.032C23.976 66.672 23.8373 67.232 23.56 67.712C23.2827 68.192 22.888 68.5653 22.376 68.832C21.8747 69.0987 21.2933 69.232 20.632 69.232H17.816C17.7733 69.232 17.752 69.2533 17.752 69.296V73.84C17.752 73.9467 17.6987 74 17.592 74H16.376C16.2693 74 16.216 73.9467 16.216 73.84V62.944C16.216 62.8373 16.2693 62.784 16.376 62.784H20.696ZM20.488 67.984C21.0747 67.984 21.544 67.808 21.896 67.456C22.2587 67.104 22.44 66.64 22.44 66.064C22.44 65.4773 22.2587 65.008 21.896 64.656C21.544 64.2933 21.0747 64.112 20.488 64.112H17.816C17.7733 64.112 17.752 64.1333 17.752 64.176V67.92C17.752 67.9627 17.7733 67.984 17.816 67.984H20.488ZM29.1724 65.776C29.5137 65.776 29.823 65.8453 30.1004 65.984C30.175 66.016 30.2017 66.08 30.1804 66.176L29.9244 67.376C29.9137 67.472 29.8497 67.504 29.7324 67.472C29.551 67.3973 29.3377 67.36 29.0924 67.36L28.8684 67.376C28.367 67.3973 27.951 67.5733 27.6204 67.904C27.3004 68.224 27.1404 68.6453 27.1404 69.168V73.84C27.1404 73.9467 27.087 74 26.9804 74H25.7644C25.6577 74 25.6044 73.9467 25.6044 73.84V66.016C25.6044 65.9093 25.6577 65.856 25.7644 65.856H26.9804C27.087 65.856 27.1404 65.9093 27.1404 66.016V66.864C27.1404 66.896 27.1457 66.9173 27.1564 66.928C27.1777 66.928 27.1937 66.9173 27.2044 66.896C27.6844 66.1493 28.3404 65.776 29.1724 65.776ZM38.0089 68.912C38.0515 69.3493 38.0675 69.84 38.0569 70.384C38.0569 70.4907 38.0035 70.544 37.8969 70.544H32.7929C32.7502 70.544 32.7289 70.5653 32.7289 70.608C32.7289 70.9707 32.7609 71.248 32.8249 71.44C32.9422 71.8667 33.1769 72.2027 33.5289 72.448C33.8915 72.6827 34.3449 72.8 34.8889 72.8C35.6782 72.8 36.2862 72.4747 36.7129 71.824C36.7662 71.7173 36.8355 71.7013 36.9209 71.776L37.8329 72.384C37.9075 72.448 37.9235 72.5173 37.8809 72.592C37.5822 73.072 37.1555 73.4507 36.6009 73.728C36.0569 74.0053 35.4382 74.144 34.7449 74.144C33.9662 74.144 33.3102 73.9733 32.7769 73.632C32.2435 73.2907 31.8435 72.8053 31.5769 72.176C31.3209 71.5467 31.1929 70.784 31.1929 69.888C31.1929 69.1093 31.2515 68.5173 31.3689 68.112C31.5609 67.376 31.9449 66.7947 32.5209 66.368C33.0969 65.9413 33.7955 65.728 34.6169 65.728C35.6942 65.728 36.4995 66 37.0329 66.544C37.5662 67.0773 37.8915 67.8667 38.0089 68.912ZM34.6169 67.056C34.1582 67.056 33.7795 67.1733 33.4809 67.408C33.1822 67.632 32.9795 67.936 32.8729 68.32C32.7982 68.5547 32.7502 68.8533 32.7289 69.216C32.7289 69.2587 32.7502 69.28 32.7929 69.28H36.4569C36.4995 69.28 36.5209 69.2587 36.5209 69.216C36.4995 68.864 36.4675 68.6027 36.4249 68.432C36.3182 68.016 36.1049 67.6853 35.7849 67.44C35.4755 67.184 35.0862 67.056 34.6169 67.056ZM41.8578 74C41.7618 74 41.6978 73.9573 41.6658 73.872L39.0578 66.032L39.0418 65.968C39.0418 65.8933 39.0898 65.856 39.1858 65.856H40.5298C40.6258 65.856 40.6898 65.8987 40.7218 65.984L42.4818 71.776C42.4924 71.7973 42.5084 71.808 42.5298 71.808C42.5511 71.808 42.5671 71.7973 42.5778 71.776L44.3218 65.984C44.3538 65.8987 44.4178 65.856 44.5138 65.856L45.8578 65.872C45.9751 65.872 46.0178 65.9307 45.9858 66.048L43.3938 73.872C43.3618 73.9573 43.2978 74 43.2018 74H41.8578ZM48.5011 64.576C48.2025 64.576 47.9571 64.48 47.7651 64.288C47.5731 64.096 47.4771 63.8507 47.4771 63.552C47.4771 63.2533 47.5731 63.008 47.7651 62.816C47.9571 62.624 48.2025 62.528 48.5011 62.528C48.7998 62.528 49.0451 62.624 49.2371 62.816C49.4291 63.008 49.5251 63.2533 49.5251 63.552C49.5251 63.8507 49.4291 64.096 49.2371 64.288C49.0451 64.48 48.7998 64.576 48.5011 64.576ZM47.8611 73.984C47.7545 73.984 47.7011 73.9307 47.7011 73.824V66.016C47.7011 65.9093 47.7545 65.856 47.8611 65.856H49.0771C49.1838 65.856 49.2371 65.9093 49.2371 66.016V73.824C49.2371 73.9307 49.1838 73.984 49.0771 73.984H47.8611ZM54.9793 74.128C54.1899 74.128 53.5019 73.9307 52.9153 73.536C52.3286 73.1307 51.9179 72.5707 51.6833 71.856C51.4913 71.28 51.3953 70.6293 51.3953 69.904C51.3953 69.1467 51.4859 68.5067 51.6673 67.984C51.9019 67.28 52.3126 66.7307 52.8993 66.336C53.4859 65.9307 54.1846 65.728 54.9953 65.728C55.7633 65.728 56.4299 65.9307 56.9953 66.336C57.5713 66.7307 57.9819 67.2747 58.2273 67.968C58.4193 68.512 58.5153 69.152 58.5153 69.888C58.5153 70.6347 58.4193 71.2907 58.2273 71.856C57.9926 72.5707 57.5873 73.1307 57.0113 73.536C56.4353 73.9307 55.7579 74.128 54.9793 74.128ZM54.9793 72.8C55.4059 72.8 55.7793 72.6827 56.0993 72.448C56.4193 72.2027 56.6486 71.8613 56.7873 71.424C56.9046 71.0187 56.9633 70.5173 56.9633 69.92C56.9633 69.3227 56.9099 68.8267 56.8033 68.432C56.6646 67.9947 56.4353 67.6587 56.1153 67.424C55.7953 67.1787 55.4059 67.056 54.9473 67.056C54.5099 67.056 54.1313 67.1787 53.8113 67.424C53.4913 67.6587 53.2619 67.9947 53.1233 68.432C53.0059 68.8053 52.9473 69.3013 52.9473 69.92C52.9473 70.5387 53.0059 71.04 53.1233 71.424C53.2513 71.8613 53.4753 72.2027 53.7953 72.448C54.1259 72.6827 54.5206 72.8 54.9793 72.8ZM65.3743 66.016C65.3743 65.9093 65.4276 65.856 65.5343 65.856H66.7343C66.8409 65.856 66.8943 65.9093 66.8943 66.016V73.84C66.8943 73.9467 66.8409 74 66.7343 74H65.5343C65.4276 74 65.3743 73.9467 65.3743 73.84V73.248C65.3743 73.2267 65.3636 73.216 65.3423 73.216C65.3316 73.2053 65.3156 73.2107 65.2943 73.232C64.8676 73.8187 64.2116 74.112 63.3263 74.112C62.8036 74.112 62.3183 74.0107 61.8703 73.808C61.4329 73.6053 61.0809 73.3067 60.8143 72.912C60.5476 72.5173 60.4143 72.0373 60.4143 71.472V66.016C60.4143 65.9093 60.4676 65.856 60.5743 65.856H61.7743C61.8809 65.856 61.9343 65.9093 61.9343 66.016V70.992C61.9343 71.5467 62.0783 71.984 62.3663 72.304C62.6649 72.624 63.0809 72.784 63.6143 72.784C64.1476 72.784 64.5743 72.624 64.8943 72.304C65.2143 71.9733 65.3743 71.536 65.3743 70.992V66.016ZM71.9996 74.096C71.3596 74.096 70.7943 74 70.3036 73.808C69.8236 73.616 69.4503 73.3547 69.1836 73.024C68.917 72.6827 68.7836 72.3093 68.7836 71.904V71.728C68.7836 71.6213 68.837 71.568 68.9436 71.568H70.0956C70.2023 71.568 70.2556 71.6213 70.2556 71.728V71.808C70.2556 72.1067 70.4156 72.368 70.7356 72.592C71.0663 72.816 71.4823 72.928 71.9836 72.928C72.4636 72.928 72.853 72.8267 73.1516 72.624C73.4503 72.4107 73.5996 72.144 73.5996 71.824C73.5996 71.5147 73.461 71.2853 73.1836 71.136C72.9063 70.976 72.4583 70.8107 71.8396 70.64C71.2316 70.4693 70.7196 70.2987 70.3036 70.128C69.8983 69.9467 69.5516 69.696 69.2636 69.376C68.9863 69.0453 68.8476 68.624 68.8476 68.112C68.8476 67.3973 69.125 66.832 69.6796 66.416C70.245 65.9893 70.9916 65.776 71.9196 65.776C72.5383 65.776 73.0823 65.8773 73.5516 66.08C74.0316 66.272 74.3996 66.544 74.6556 66.896C74.9116 67.248 75.0396 67.6427 75.0396 68.08V68.128C75.0396 68.2347 74.9863 68.288 74.8796 68.288H73.7596C73.653 68.288 73.5996 68.2347 73.5996 68.128V68.08C73.5996 67.7707 73.445 67.5147 73.1356 67.312C72.837 67.0987 72.4263 66.992 71.9036 66.992C71.4343 66.992 71.0503 67.0827 70.7516 67.264C70.4636 67.4453 70.3196 67.6907 70.3196 68C70.3196 68.3093 70.4583 68.544 70.7356 68.704C71.0236 68.864 71.4823 69.0347 72.1116 69.216C72.7303 69.3867 73.2423 69.5573 73.6476 69.728C74.0636 69.888 74.4156 70.1333 74.7036 70.464C74.9916 70.784 75.1356 71.2053 75.1356 71.728C75.1356 72.4533 74.8476 73.0293 74.2716 73.456C73.7063 73.8827 72.949 74.096 71.9996 74.096Z" fill="#DCE3EB"/>
<circle cx="90" cy="68" r="2" fill="#DCE3EB"/>
<path d="M111.904 62.96C111.904 62.8533 111.957 62.8 112.064 62.8H113.28C113.387 62.8 113.44 62.8533 113.44 62.96V73.84C113.44 73.9467 113.387 74 113.28 74H112.112C112.037 74 111.973 73.9627 111.92 73.888L106.912 65.712C106.901 65.68 106.885 65.6693 106.864 65.68C106.843 65.68 106.832 65.696 106.832 65.728L106.848 73.84C106.848 73.9467 106.795 74 106.688 74H105.472C105.365 74 105.312 73.9467 105.312 73.84V62.96C105.312 62.8533 105.365 62.8 105.472 62.8H106.656C106.731 62.8 106.795 62.8373 106.848 62.912L111.84 71.088C111.851 71.12 111.867 71.136 111.888 71.136C111.909 71.1253 111.92 71.104 111.92 71.072L111.904 62.96ZM122.478 68.912C122.52 69.3493 122.536 69.84 122.526 70.384C122.526 70.4907 122.472 70.544 122.366 70.544H117.262C117.219 70.544 117.198 70.5653 117.198 70.608C117.198 70.9707 117.23 71.248 117.294 71.44C117.411 71.8667 117.646 72.2027 117.998 72.448C118.36 72.6827 118.814 72.8 119.358 72.8C120.147 72.8 120.755 72.4747 121.182 71.824C121.235 71.7173 121.304 71.7013 121.39 71.776L122.302 72.384C122.376 72.448 122.392 72.5173 122.35 72.592C122.051 73.072 121.624 73.4507 121.07 73.728C120.526 74.0053 119.907 74.144 119.214 74.144C118.435 74.144 117.779 73.9733 117.246 73.632C116.712 73.2907 116.312 72.8053 116.046 72.176C115.79 71.5467 115.662 70.784 115.662 69.888C115.662 69.1093 115.72 68.5173 115.838 68.112C116.03 67.376 116.414 66.7947 116.99 66.368C117.566 65.9413 118.264 65.728 119.086 65.728C120.163 65.728 120.968 66 121.502 66.544C122.035 67.0773 122.36 67.8667 122.478 68.912ZM119.086 67.056C118.627 67.056 118.248 67.1733 117.95 67.408C117.651 67.632 117.448 67.936 117.342 68.32C117.267 68.5547 117.219 68.8533 117.198 69.216C117.198 69.2587 117.219 69.28 117.262 69.28H120.926C120.968 69.28 120.99 69.2587 120.99 69.216C120.968 68.864 120.936 68.6027 120.894 68.432C120.787 68.016 120.574 67.6853 120.254 67.44C119.944 67.184 119.555 67.056 119.086 67.056ZM123.607 74C123.543 74 123.5 73.984 123.479 73.952C123.457 73.9093 123.463 73.8613 123.495 73.808L126.151 69.984C126.172 69.952 126.172 69.92 126.151 69.888L123.495 66.048L123.463 65.968C123.463 65.8933 123.511 65.856 123.607 65.856H124.903C124.988 65.856 125.052 65.888 125.095 65.952L126.967 68.688C126.977 68.6987 126.993 68.704 127.015 68.704C127.036 68.704 127.052 68.6987 127.062 68.688L128.919 65.952C128.961 65.888 129.025 65.856 129.111 65.856H130.503C130.567 65.856 130.609 65.8773 130.631 65.92C130.652 65.952 130.647 65.9947 130.615 66.048L127.959 69.888C127.948 69.92 127.948 69.952 127.959 69.984L130.615 73.808L130.647 73.888C130.647 73.9627 130.599 74 130.503 74H129.191C129.105 74 129.041 73.968 128.999 73.904L127.143 71.168C127.132 71.1467 127.116 71.136 127.095 71.136C127.073 71.136 127.057 71.1467 127.047 71.168L125.174 73.904C125.132 73.968 125.068 74 124.983 74H123.607ZM136.183 66.96C136.183 67.0667 136.13 67.12 136.023 67.12H134.295C134.252 67.12 134.231 67.1413 134.231 67.184V71.424C134.231 71.872 134.332 72.1973 134.535 72.4C134.738 72.592 135.052 72.688 135.479 72.688H135.943C136.05 72.688 136.103 72.7413 136.103 72.848V73.84C136.103 73.9467 136.05 74 135.943 74C135.602 74.0213 135.356 74.032 135.207 74.032C134.396 74.032 133.783 73.888 133.367 73.6C132.962 73.3013 132.759 72.7573 132.759 71.968V67.184C132.759 67.1413 132.738 67.12 132.695 67.12H131.719C131.612 67.12 131.559 67.0667 131.559 66.96V66.016C131.559 65.9093 131.612 65.856 131.719 65.856H132.695C132.738 65.856 132.759 65.8347 132.759 65.792V63.904C132.759 63.7973 132.812 63.744 132.919 63.744H134.071C134.178 63.744 134.231 63.7973 134.231 63.904V65.792C134.231 65.8347 134.252 65.856 134.295 65.856H136.023C136.13 65.856 136.183 65.9093 136.183 66.016V66.96Z" fill="#4D9FFF"/>
<path d="M145 62L151 68L145 74" stroke="#4D9FFF" stroke-width="1.5" stroke-linecap="round" stroke-linejoin="round"/>
</svg>
