<svg width="12" height="8" viewBox="0 0 12 8" fill="none" xmlns="http://www.w3.org/2000/svg">
<path d="M10.2929 7.20711C10.6834 7.59763 11.3166 7.59763 11.7071 7.20711C12.0976 6.81658 12.0976 6.18342 11.7071 5.79289L10.2929 7.20711ZM6 1.5L6.70711 0.792894C6.31658 0.402369 5.68342 0.402369 5.29289 0.792894L6 1.5ZM0.292893 5.79289C-0.0976315 6.18342 -0.0976314 6.81658 0.292893 7.20711C0.683417 7.59763 1.31658 7.59763 1.70711 7.20711L0.292893 5.79289ZM11.7071 5.79289L6.70711 0.792894L5.29289 2.20711L10.2929 7.20711L11.7071 5.79289ZM5.29289 0.792894L0.292893 5.79289L1.70711 7.20711L6.70711 2.20711L5.29289 0.792894Z" fill="#1C355E"/>
</svg>
