<svg width="178" height="35" viewBox="0 0 178 35" fill="none" xmlns="http://www.w3.org/2000/svg">
<g clip-path="url(#clip0_942_901)">
<path d="M144.703 30.2496C144.552 31.1633 144.021 32.1494 143.08 32.5288C141.574 32.6811 139.467 33.1005 138.188 32.1494L137.924 30.7813L138 13.0463C139.052 11.3712 141.764 12.0552 143.535 12.1326C143.987 12.2849 144.555 12.6269 144.703 13.1586V30.2496ZM118.424 18.6384C117.858 20.4309 115.974 21.3421 114.241 21.5693H111.003L111.079 11.9803C113.49 11.9803 115.972 12.0202 117.594 13.8102C118.683 15.0634 118.95 17.0032 118.424 18.6384ZM80.5482 26.4799L85.3342 17.0806L90.3005 26.4799H80.5482ZM161.792 10.8768C161.15 12.6693 163.296 11.6033 163.941 12.1351C164.879 12.3997 165.558 13.3134 165.746 14.2646L165.669 26.1378H165.558L151.212 10.7645H128.623C128.663 11.1465 128.547 11.5659 128.7 11.868C129.752 12.0976 131.337 11.6383 131.676 12.9714V31.7699C131.488 32.1144 131.411 32.5313 130.96 32.6087C129.488 32.8734 127.608 33.0631 126.628 31.6176C124.484 28.6868 122.711 25.4563 120.229 22.83C119.78 22.6003 119.214 22.483 118.873 22.2933C121.022 21.9937 123.277 21.3072 124.445 19.1727C125.082 17.6149 124.971 15.4454 123.842 14.1522C118.501 8.51767 109.126 11.6383 101.596 10.7645C101.633 11.1465 101.52 11.5659 101.707 11.868C102.688 12.1351 104.118 11.6033 104.683 12.7817L104.757 31.6176L104.419 32.3416C103.782 32.9133 102.918 32.761 102.048 32.801C101.073 32.801 100.28 32.1519 99.7145 31.318L89.1373 12.2524C88.6484 11.6408 88.5323 10.6547 87.7075 10.4225C86.5394 12.0627 85.1465 12.9364 83.7166 14.1572C84.2007 14.347 84.2772 14.8413 84.4303 15.2607L77.5773 29.0338C76.7845 30.5566 75.5819 32.5338 73.6976 32.6861C73.3222 32.4964 72.7937 32.2692 72.6826 31.7724V12.9739C73.1716 11.6408 74.678 12.1001 75.7695 11.8704V10.767H66.358L59.0555 26.2202C56.6057 21.08 54.0867 15.9822 51.753 10.767H41.9636V11.8704C43.1712 12.0602 44.8999 11.7182 45.2382 13.2435C45.2382 19.255 45.6531 25.6485 44.8604 31.4304C44.5221 32.1194 43.8083 32.6512 43.0551 32.6861C41.5512 32.5738 40.1213 32.042 39.1804 30.7089L23.4418 0.451537L23.101 0.374146C21.7106 2.00934 19.9029 3.5322 18.1322 4.94021L19.0361 6.50301L14.3266 16.2418L-0.0512418 16.434C-0.0166678 16.7011 -0.127798 17.0432 0.0598891 17.2728L13.8006 17.3477C13.6129 17.9194 13.4252 18.4512 13.0474 18.908H0.0598891V19.8941L12.5213 20.0115C12.3707 20.5482 12.1435 21.075 11.8052 21.5693L-0.0537109 21.6467V22.483L11.2396 22.6378C11.1631 23.2444 10.7507 23.7038 10.5259 24.2006H0.0598891L-0.0512418 25.1143L9.99745 25.304C9.88878 25.8757 9.51341 26.3251 9.28621 26.8618H0.0598891V27.8529L8.71574 27.9653C7.96499 29.563 6.79688 31.4653 5.02867 32.1494C4.31496 32.8709 1.9417 32.0745 2.84557 33.9743L14.0648 33.8994C14.0253 33.5199 14.1389 33.098 13.9488 32.796C12.5584 32.6786 11.0495 32.8359 10.0715 31.6151C9.51094 30.2496 10.4148 29.0263 10.8988 27.8504H19.8239C19.935 27.5833 20.0511 27.089 19.7473 26.8593L11.3532 26.747L12.146 25.2241L20.6512 25.1118C20.5771 24.8047 20.8043 24.3903 20.4635 24.1981L12.6004 24.1157C12.7115 23.549 13.0893 23.0946 13.3536 22.5579L21.3674 22.4805V21.6442L13.8031 21.4544L14.5958 19.8916L22.086 19.8168C22.086 19.5496 22.1626 19.2051 22.0094 18.9779L15.0452 18.8256C15.3095 18.2939 15.4997 17.7222 15.875 17.2678L22.8367 17.1505V16.3591C20.6536 16.3192 18.436 16.434 16.3245 16.2418C17.4926 13.6929 18.6582 11.144 19.8263 8.59007C19.9029 8.63251 19.9375 8.7074 20.014 8.66746L28.7119 25.3015C29.428 27.3536 31.2728 29.0662 31.2333 31.3131C30.4406 33.0256 28.4847 32.5688 26.9782 32.8709V33.8994H50.733C50.6935 33.5199 50.8096 33.098 50.6589 32.796C49.9057 32.796 49.2241 32.756 48.587 32.6062C47.8338 32.3766 47.2682 31.5802 47.041 30.8537L47.1176 14.2621L47.3053 14.4144L56.418 33.9743H57.0551L66.3531 14.2646H66.5408L66.4642 31.7699C65.9752 33.103 64.4688 32.6487 63.3772 32.8734C63.4143 33.2553 63.3032 33.6722 63.4933 33.9768H81.7113V32.8734C80.5432 32.7985 79.2665 32.8384 78.4737 31.7699C77.9848 30.252 79.2665 29.2609 79.8271 28.0427L91.197 28.1176C91.9156 29.3733 92.8911 30.4767 93.0072 31.9596C92.2935 33.1005 90.7475 32.6487 89.5794 32.8734V33.9019H114.05C114.05 33.5224 114.127 33.1005 113.974 32.7985C113.297 32.7585 112.544 32.8734 111.902 32.6811C111.418 32.4564 110.998 32.1494 110.887 31.6151L110.998 22.7476C112.277 22.7127 113.559 22.6702 114.5 23.4691L120.938 33.9718L150.378 33.8969C150.343 33.5174 150.454 33.0955 150.304 32.7935C149.513 32.8684 148.837 32.6761 148.121 32.6037C147.479 32.3741 146.762 31.69 146.691 30.9685V14.2646H146.765L166.003 34.6259H167.282L167.47 14.0748L167.996 12.894C168.638 11.9803 169.653 11.9453 170.633 11.868V10.7645L161.792 10.8768Z" fill="#F2F4F7"/>
<path d="M174.831 14.1772C176.624 14.1772 178.054 15.6526 178.054 17.5C178.054 19.3474 176.621 20.8228 174.831 20.8228C173.058 20.8228 171.633 19.3474 171.633 17.5C171.635 15.6526 173.058 14.1772 174.831 14.1772ZM174.831 20.2037C176.281 20.2037 177.397 19.0204 177.397 17.5C177.397 15.9796 176.281 14.7963 174.831 14.7963C173.399 14.7963 172.29 15.9796 172.29 17.5C172.29 19.0204 173.401 20.2037 174.831 20.2037ZM173.732 15.7699H175.038C175.678 15.7699 176.11 16.1794 176.11 16.816C176.11 17.3452 175.769 17.6548 175.49 17.7272V17.7447C175.49 17.7447 175.525 17.7821 175.606 17.9369L176.256 19.2026H175.554L174.925 17.8745H174.374V19.2026H173.734V15.7699H173.732ZM174.912 17.4001C175.246 17.4001 175.461 17.1829 175.461 16.816C175.461 16.4615 175.243 16.2617 174.912 16.2617H174.372V17.4001H174.912Z" fill="#F2F4F7"/>
</g>
<defs>
<clipPath id="clip0_942_901">
<rect width="178" height="35" fill="white"/>
</clipPath>
</defs>
</svg>