<svg width="48" height="24" viewBox="0 0 48 24" fill="none" xmlns="http://www.w3.org/2000/svg">
<path d="M7.904 6.96C7.904 6.85333 7.95733 6.8 8.064 6.8H9.28C9.38667 6.8 9.44 6.85333 9.44 6.96V17.84C9.44 17.9467 9.38667 18 9.28 18H8.112C8.03733 18 7.97333 17.9627 7.92 17.888L2.912 9.712C2.90133 9.68 2.88533 9.66933 2.864 9.68C2.84267 9.68 2.832 9.696 2.832 9.728L2.848 17.84C2.848 17.9467 2.79467 18 2.688 18H1.472C1.36533 18 1.312 17.9467 1.312 17.84V6.96C1.312 6.85333 1.36533 6.8 1.472 6.8H2.656C2.73067 6.8 2.79467 6.83733 2.848 6.912L7.84 15.088C7.85067 15.12 7.86667 15.136 7.888 15.136C7.90933 15.1253 7.92 15.104 7.92 15.072L7.904 6.96ZM18.4776 12.912C18.5203 13.3493 18.5363 13.84 18.5256 14.384C18.5256 14.4907 18.4723 14.544 18.3656 14.544H13.2616C13.219 14.544 13.1976 14.5653 13.1976 14.608C13.1976 14.9707 13.2296 15.248 13.2936 15.44C13.411 15.8667 13.6456 16.2027 13.9976 16.448C14.3603 16.6827 14.8136 16.8 15.3576 16.8C16.147 16.8 16.755 16.4747 17.1816 15.824C17.235 15.7173 17.3043 15.7013 17.3896 15.776L18.3016 16.384C18.3763 16.448 18.3923 16.5173 18.3496 16.592C18.051 17.072 17.6243 17.4507 17.0696 17.728C16.5256 18.0053 15.907 18.144 15.2136 18.144C14.435 18.144 13.779 17.9733 13.2456 17.632C12.7123 17.2907 12.3123 16.8053 12.0456 16.176C11.7896 15.5467 11.6616 14.784 11.6616 13.888C11.6616 13.1093 11.7203 12.5173 11.8376 12.112C12.0296 11.376 12.4136 10.7947 12.9896 10.368C13.5656 9.94133 14.2643 9.728 15.0856 9.728C16.163 9.728 16.9683 10 17.5016 10.544C18.035 11.0773 18.3603 11.8667 18.4776 12.912ZM15.0856 11.056C14.627 11.056 14.2483 11.1733 13.9496 11.408C13.651 11.632 13.4483 11.936 13.3416 12.32C13.267 12.5547 13.219 12.8533 13.1976 13.216C13.1976 13.2587 13.219 13.28 13.2616 13.28H16.9256C16.9683 13.28 16.9896 13.2587 16.9896 13.216C16.9683 12.864 16.9363 12.6027 16.8936 12.432C16.787 12.016 16.5736 11.6853 16.2536 11.44C15.9443 11.184 15.555 11.056 15.0856 11.056ZM19.6065 18C19.5425 18 19.4998 17.984 19.4785 17.952C19.4572 17.9093 19.4625 17.8613 19.4945 17.808L22.1505 13.984C22.1718 13.952 22.1718 13.92 22.1505 13.888L19.4945 10.048L19.4625 9.968C19.4625 9.89333 19.5105 9.856 19.6065 9.856H20.9025C20.9878 9.856 21.0518 9.888 21.0945 9.952L22.9665 12.688C22.9772 12.6987 22.9932 12.704 23.0145 12.704C23.0358 12.704 23.0518 12.6987 23.0625 12.688L24.9185 9.952C24.9612 9.888 25.0252 9.856 25.1105 9.856H26.5025C26.5665 9.856 26.6092 9.87733 26.6305 9.92C26.6518 9.952 26.6465 9.99467 26.6145 10.048L23.9585 13.888C23.9478 13.92 23.9478 13.952 23.9585 13.984L26.6145 17.808L26.6465 17.888C26.6465 17.9627 26.5985 18 26.5025 18H25.1905C25.1052 18 25.0412 17.968 24.9985 17.904L23.1425 15.168C23.1318 15.1467 23.1158 15.136 23.0945 15.136C23.0732 15.136 23.0572 15.1467 23.0465 15.168L21.1745 17.904C21.1318 17.968 21.0678 18 20.9825 18H19.6065ZM32.1829 10.96C32.1829 11.0667 32.1295 11.12 32.0229 11.12H30.2949C30.2522 11.12 30.2309 11.1413 30.2309 11.184V15.424C30.2309 15.872 30.3322 16.1973 30.5349 16.4C30.7375 16.592 31.0522 16.688 31.4789 16.688H31.9429C32.0495 16.688 32.1029 16.7413 32.1029 16.848V17.84C32.1029 17.9467 32.0495 18 31.9429 18C31.6015 18.0213 31.3562 18.032 31.2069 18.032C30.3962 18.032 29.7829 17.888 29.3669 17.6C28.9615 17.3013 28.7589 16.7573 28.7589 15.968V11.184C28.7589 11.1413 28.7375 11.12 28.6949 11.12H27.7189C27.6122 11.12 27.5589 11.0667 27.5589 10.96V10.016C27.5589 9.90933 27.6122 9.856 27.7189 9.856H28.6949C28.7375 9.856 28.7589 9.83467 28.7589 9.792V7.904C28.7589 7.79733 28.8122 7.744 28.9189 7.744H30.0709C30.1775 7.744 30.2309 7.79733 30.2309 7.904V9.792C30.2309 9.83467 30.2522 9.856 30.2949 9.856H32.0229C32.1295 9.856 32.1829 9.90933 32.1829 10.016V10.96Z" fill="#4D9FFF"/>
<path d="M41 6L47 12L41 18" stroke="#4D9FFF" stroke-width="1.5" stroke-linecap="round" stroke-linejoin="round"/>
</svg>
