<svg width="76" height="24" viewBox="0 0 76 24" fill="none" xmlns="http://www.w3.org/2000/svg">
<path d="M7 18L1 12L7 6" stroke="#4D9FFF" stroke-width="1.5" stroke-linecap="round" stroke-linejoin="round"/>
<path d="M20.696 6.784C21.3467 6.784 21.9173 6.92267 22.408 7.2C22.9093 7.46667 23.2933 7.84533 23.56 8.336C23.8373 8.82667 23.976 9.392 23.976 10.032C23.976 10.672 23.8373 11.232 23.56 11.712C23.2827 12.192 22.888 12.5653 22.376 12.832C21.8747 13.0987 21.2933 13.232 20.632 13.232H17.816C17.7733 13.232 17.752 13.2533 17.752 13.296V17.84C17.752 17.9467 17.6987 18 17.592 18H16.376C16.2693 18 16.216 17.9467 16.216 17.84V6.944C16.216 6.83733 16.2693 6.784 16.376 6.784H20.696ZM20.488 11.984C21.0747 11.984 21.544 11.808 21.896 11.456C22.2587 11.104 22.44 10.64 22.44 10.064C22.44 9.47733 22.2587 9.008 21.896 8.656C21.544 8.29333 21.0747 8.112 20.488 8.112H17.816C17.7733 8.112 17.752 8.13333 17.752 8.176V11.92C17.752 11.9627 17.7733 11.984 17.816 11.984H20.488ZM29.1724 9.776C29.5137 9.776 29.823 9.84533 30.1004 9.984C30.175 10.016 30.2017 10.08 30.1804 10.176L29.9244 11.376C29.9137 11.472 29.8497 11.504 29.7324 11.472C29.551 11.3973 29.3377 11.36 29.0924 11.36L28.8684 11.376C28.367 11.3973 27.951 11.5733 27.6204 11.904C27.3004 12.224 27.1404 12.6453 27.1404 13.168V17.84C27.1404 17.9467 27.087 18 26.9804 18H25.7644C25.6577 18 25.6044 17.9467 25.6044 17.84V10.016C25.6044 9.90933 25.6577 9.856 25.7644 9.856H26.9804C27.087 9.856 27.1404 9.90933 27.1404 10.016V10.864C27.1404 10.896 27.1457 10.9173 27.1564 10.928C27.1777 10.928 27.1937 10.9173 27.2044 10.896C27.6844 10.1493 28.3404 9.776 29.1724 9.776ZM38.0089 12.912C38.0515 13.3493 38.0675 13.84 38.0569 14.384C38.0569 14.4907 38.0035 14.544 37.8969 14.544H32.7929C32.7502 14.544 32.7289 14.5653 32.7289 14.608C32.7289 14.9707 32.7609 15.248 32.8249 15.44C32.9422 15.8667 33.1769 16.2027 33.5289 16.448C33.8915 16.6827 34.3449 16.8 34.8889 16.8C35.6782 16.8 36.2862 16.4747 36.7129 15.824C36.7662 15.7173 36.8355 15.7013 36.9209 15.776L37.8329 16.384C37.9075 16.448 37.9235 16.5173 37.8809 16.592C37.5822 17.072 37.1555 17.4507 36.6009 17.728C36.0569 18.0053 35.4382 18.144 34.7449 18.144C33.9662 18.144 33.3102 17.9733 32.7769 17.632C32.2435 17.2907 31.8435 16.8053 31.5769 16.176C31.3209 15.5467 31.1929 14.784 31.1929 13.888C31.1929 13.1093 31.2515 12.5173 31.3689 12.112C31.5609 11.376 31.9449 10.7947 32.5209 10.368C33.0969 9.94133 33.7955 9.728 34.6169 9.728C35.6942 9.728 36.4995 10 37.0329 10.544C37.5662 11.0773 37.8915 11.8667 38.0089 12.912ZM34.6169 11.056C34.1582 11.056 33.7795 11.1733 33.4809 11.408C33.1822 11.632 32.9795 11.936 32.8729 12.32C32.7982 12.5547 32.7502 12.8533 32.7289 13.216C32.7289 13.2587 32.7502 13.28 32.7929 13.28H36.4569C36.4995 13.28 36.5209 13.2587 36.5209 13.216C36.4995 12.864 36.4675 12.6027 36.4249 12.432C36.3182 12.016 36.1049 11.6853 35.7849 11.44C35.4755 11.184 35.0862 11.056 34.6169 11.056ZM41.8578 18C41.7618 18 41.6978 17.9573 41.6658 17.872L39.0578 10.032L39.0418 9.968C39.0418 9.89333 39.0898 9.856 39.1858 9.856H40.5298C40.6258 9.856 40.6898 9.89867 40.7218 9.984L42.4818 15.776C42.4924 15.7973 42.5084 15.808 42.5298 15.808C42.5511 15.808 42.5671 15.7973 42.5778 15.776L44.3218 9.984C44.3538 9.89867 44.4178 9.856 44.5138 9.856L45.8578 9.872C45.9751 9.872 46.0178 9.93067 45.9858 10.048L43.3938 17.872C43.3618 17.9573 43.2978 18 43.2018 18H41.8578ZM48.5011 8.576C48.2025 8.576 47.9571 8.48 47.7651 8.288C47.5731 8.096 47.4771 7.85067 47.4771 7.552C47.4771 7.25333 47.5731 7.008 47.7651 6.816C47.9571 6.624 48.2025 6.528 48.5011 6.528C48.7998 6.528 49.0451 6.624 49.2371 6.816C49.4291 7.008 49.5251 7.25333 49.5251 7.552C49.5251 7.85067 49.4291 8.096 49.2371 8.288C49.0451 8.48 48.7998 8.576 48.5011 8.576ZM47.8611 17.984C47.7545 17.984 47.7011 17.9307 47.7011 17.824V10.016C47.7011 9.90933 47.7545 9.856 47.8611 9.856H49.0771C49.1838 9.856 49.2371 9.90933 49.2371 10.016V17.824C49.2371 17.9307 49.1838 17.984 49.0771 17.984H47.8611ZM54.9793 18.128C54.1899 18.128 53.5019 17.9307 52.9153 17.536C52.3286 17.1307 51.9179 16.5707 51.6833 15.856C51.4913 15.28 51.3953 14.6293 51.3953 13.904C51.3953 13.1467 51.4859 12.5067 51.6673 11.984C51.9019 11.28 52.3126 10.7307 52.8993 10.336C53.4859 9.93067 54.1846 9.728 54.9953 9.728C55.7633 9.728 56.4299 9.93067 56.9953 10.336C57.5713 10.7307 57.9819 11.2747 58.2273 11.968C58.4193 12.512 58.5153 13.152 58.5153 13.888C58.5153 14.6347 58.4193 15.2907 58.2273 15.856C57.9926 16.5707 57.5873 17.1307 57.0113 17.536C56.4353 17.9307 55.7579 18.128 54.9793 18.128ZM54.9793 16.8C55.4059 16.8 55.7793 16.6827 56.0993 16.448C56.4193 16.2027 56.6486 15.8613 56.7873 15.424C56.9046 15.0187 56.9633 14.5173 56.9633 13.92C56.9633 13.3227 56.9099 12.8267 56.8033 12.432C56.6646 11.9947 56.4353 11.6587 56.1153 11.424C55.7953 11.1787 55.4059 11.056 54.9473 11.056C54.5099 11.056 54.1313 11.1787 53.8113 11.424C53.4913 11.6587 53.2619 11.9947 53.1233 12.432C53.0059 12.8053 52.9473 13.3013 52.9473 13.92C52.9473 14.5387 53.0059 15.04 53.1233 15.424C53.2513 15.8613 53.4753 16.2027 53.7953 16.448C54.1259 16.6827 54.5206 16.8 54.9793 16.8ZM65.3743 10.016C65.3743 9.90933 65.4276 9.856 65.5343 9.856H66.7343C66.8409 9.856 66.8943 9.90933 66.8943 10.016V17.84C66.8943 17.9467 66.8409 18 66.7343 18H65.5343C65.4276 18 65.3743 17.9467 65.3743 17.84V17.248C65.3743 17.2267 65.3636 17.216 65.3423 17.216C65.3316 17.2053 65.3156 17.2107 65.2943 17.232C64.8676 17.8187 64.2116 18.112 63.3263 18.112C62.8036 18.112 62.3183 18.0107 61.8703 17.808C61.4329 17.6053 61.0809 17.3067 60.8143 16.912C60.5476 16.5173 60.4143 16.0373 60.4143 15.472V10.016C60.4143 9.90933 60.4676 9.856 60.5743 9.856H61.7743C61.8809 9.856 61.9343 9.90933 61.9343 10.016V14.992C61.9343 15.5467 62.0783 15.984 62.3663 16.304C62.6649 16.624 63.0809 16.784 63.6143 16.784C64.1476 16.784 64.5743 16.624 64.8943 16.304C65.2143 15.9733 65.3743 15.536 65.3743 14.992V10.016ZM71.9996 18.096C71.3596 18.096 70.7943 18 70.3036 17.808C69.8236 17.616 69.4503 17.3547 69.1836 17.024C68.917 16.6827 68.7836 16.3093 68.7836 15.904V15.728C68.7836 15.6213 68.837 15.568 68.9436 15.568H70.0956C70.2023 15.568 70.2556 15.6213 70.2556 15.728V15.808C70.2556 16.1067 70.4156 16.368 70.7356 16.592C71.0663 16.816 71.4823 16.928 71.9836 16.928C72.4636 16.928 72.853 16.8267 73.1516 16.624C73.4503 16.4107 73.5996 16.144 73.5996 15.824C73.5996 15.5147 73.461 15.2853 73.1836 15.136C72.9063 14.976 72.4583 14.8107 71.8396 14.64C71.2316 14.4693 70.7196 14.2987 70.3036 14.128C69.8983 13.9467 69.5516 13.696 69.2636 13.376C68.9863 13.0453 68.8476 12.624 68.8476 12.112C68.8476 11.3973 69.125 10.832 69.6796 10.416C70.245 9.98933 70.9916 9.776 71.9196 9.776C72.5383 9.776 73.0823 9.87733 73.5516 10.08C74.0316 10.272 74.3996 10.544 74.6556 10.896C74.9116 11.248 75.0396 11.6427 75.0396 12.08V12.128C75.0396 12.2347 74.9863 12.288 74.8796 12.288H73.7596C73.653 12.288 73.5996 12.2347 73.5996 12.128V12.08C73.5996 11.7707 73.445 11.5147 73.1356 11.312C72.837 11.0987 72.4263 10.992 71.9036 10.992C71.4343 10.992 71.0503 11.0827 70.7516 11.264C70.4636 11.4453 70.3196 11.6907 70.3196 12C70.3196 12.3093 70.4583 12.544 70.7356 12.704C71.0236 12.864 71.4823 13.0347 72.1116 13.216C72.7303 13.3867 73.2423 13.5573 73.6476 13.728C74.0636 13.888 74.4156 14.1333 74.7036 14.464C74.9916 14.784 75.1356 15.2053 75.1356 15.728C75.1356 16.4533 74.8476 17.0293 74.2716 17.456C73.7063 17.8827 72.949 18.096 71.9996 18.096Z" fill="#4D9FFF"/>
</svg>
